<?xml version="1.0" standalone="no"?>
<!DOCTYPE svg PUBLIC "-//W3C//DTD SVG 20010904//EN"
 "http://www.w3.org/TR/2001/REC-SVG-20010904/DTD/svg10.dtd">
<svg version="1.0" xmlns="http://www.w3.org/2000/svg"
 width="694.000000pt" height="694.000000pt" viewBox="0 0 694.000000 694.000000"
 preserveAspectRatio="xMidYMid meet">
<metadata>
Created by potrace 1.14, written by Peter Selinger 2001-2017
</metadata>
<g transform="translate(0.000000,694.000000) scale(0.100000,-0.100000)"
fill="#000000" stroke="none">
<path d="M1919 6936 c-2 -2 -67 -7 -144 -10 -77 -4 -149 -9 -160 -11 -11 -2
-49 -7 -85 -10 -36 -3 -87 -8 -115 -11 -62 -7 -293 -51 -360 -69 -573 -152
-861 -481 -980 -1120 -18 -100 -33 -202 -41 -291 -3 -38 -8 -80 -10 -94 -15
-97 -19 -485 -19 -1865 0 -1395 3 -1688 20 -1840 2 -22 7 -67 10 -100 4 -49
18 -146 40 -280 24 -155 96 -379 161 -506 119 -233 272 -382 509 -498 180 -89
453 -163 680 -186 28 -3 70 -7 95 -10 101 -12 141 -15 265 -22 169 -10 3201
-10 3365 0 170 10 226 15 360 33 773 100 1142 379 1309 992 17 59 32 124 36
146 3 21 7 41 9 45 2 3 7 29 10 56 4 28 9 59 11 70 5 20 6 33 26 215 21 204
24 416 24 1915 0 1366 -4 1740 -19 1835 -2 14 -7 57 -11 95 -6 68 -11 110 -20
170 -3 17 -7 48 -11 70 -11 77 -56 261 -84 348 -167 504 -503 762 -1135 871
-49 9 -112 18 -140 21 -27 3 -66 7 -85 10 -19 2 -71 7 -115 11 -44 3 -100 9
-125 11 -50 6 -3265 15 -3271 9z m2228 -2176 c-3 -8 -47 -125 -99 -260 -52
-135 -184 -477 -292 -760 -109 -283 -202 -524 -207 -535 -10 -23 -198 -510
-264 -687 -92 -244 -124 -289 -226 -323 -42 -14 -253 -25 -264 -13 -2 2 13 49
34 104 76 192 694 1790 716 1849 13 33 51 132 85 220 35 88 73 188 85 222 57
157 126 199 325 198 94 0 110 -2 107 -15z m-1797 -728 l0 -178 -27 -31 c-16
-17 -82 -59 -148 -93 -188 -98 -325 -170 -390 -205 -33 -18 -96 -45 -140 -61
-49 -18 -72 -30 -60 -32 55 -10 289 -114 340 -152 6 -4 91 -49 190 -99 99 -51
191 -104 205 -117 25 -24 25 -27 28 -209 2 -102 1 -185 -2 -185 -2 0 -35 16
-73 36 -83 45 -249 132 -403 211 -63 33 -158 83 -210 110 -52 28 -149 78 -215
113 -66 34 -184 96 -262 137 l-142 75 0 90 c0 75 2 90 17 95 9 4 19 9 22 12 3
3 57 32 120 65 63 32 165 84 225 116 61 31 173 90 250 130 77 40 185 96 240
125 55 29 168 87 250 130 83 43 154 82 160 86 5 5 13 9 17 9 4 0 8 -80 8 -178z
m2690 -55 c63 -33 221 -115 350 -182 129 -68 296 -155 370 -194 l135 -70 0
-91 0 -91 -120 -63 c-66 -34 -181 -94 -255 -133 -74 -39 -177 -93 -228 -119
-51 -27 -132 -69 -180 -94 -48 -25 -168 -88 -267 -139 -99 -52 -185 -97 -190
-102 -6 -4 -23 -12 -38 -18 l-27 -11 0 180 0 180 28 29 c15 16 86 60 157 97
72 36 166 86 210 109 152 81 260 133 309 149 70 24 88 35 55 36 -29 0 -119 35
-199 78 -30 16 -156 82 -280 146 -124 65 -237 131 -252 147 l-28 29 0 181 0
181 168 -88 c92 -48 219 -114 282 -147z"/>
</g>
</svg>
