<svg fill="none" xmlns="http://www.w3.org/2000/svg" viewBox="0 0 694 694">
  <path fill-rule="evenodd" clip-rule="evenodd"
    d="M230.408 0C40.667 0 0 40.667 0 230.408v233.184C0 653.333 40.667 694 230.408 694h233.184C653.333 694 694 653.333 694 463.592V230.408C694 40.667 653.333 0 463.592 0H230.408Zm91.3 459.576c-2.072 5.448-5.399 9.534-9.979 12.258-4.472 2.833-9.053 4.25-13.743 4.25h-19.14l94.395-244.028c1.854-4.904 4.798-8.718 8.834-11.442 4.035-2.724 8.67-4.086 13.905-4.086h19.305l-93.577 243.048ZM173.955 343.854c-2.617 1.308-5.453 2.452-8.507 3.433-2.944.98-6.053 1.907-9.325 2.778 6.544 1.526 12.488 3.596 17.832 6.211l53.496 27.95c2.836 1.308 4.799 2.942 5.89 4.903 1.199 1.962 1.799 4.141 1.799 6.538v31.709L104.1 358.892v-17.816l131.04-68.322v31.709c0 2.288-.6 4.413-1.799 6.375-1.091 1.961-3.054 3.596-5.89 4.903l-53.496 28.113ZM589.9 358.892v-17.816l-131.04-68.322v31.709c0 2.288.545 4.413 1.636 6.375 1.199 1.961 3.217 3.596 6.053 4.903l53.496 28.113a99.44 99.44 0 0 0 8.507 3.596c2.944.981 6.107 1.853 9.488 2.615-3.381.763-6.544 1.689-9.488 2.779a73.064 73.064 0 0 0-8.507 3.432l-53.496 27.95c-2.836 1.308-4.854 2.942-6.053 4.903-1.091 1.962-1.636 4.141-1.636 6.538v31.709l131.04-68.484Z"
    fill="url(#a)" />
  <defs>
    <linearGradient id="a" x1="0" y1="0" x2="694" y2="694" gradientUnits="userSpaceOnUse">
      <stop stop-color="#F19A57" />
      <stop offset=".755" stop-color="#D46536" />
      <stop offset="1" stop-color="#D75C26" />
    </linearGradient>
  </defs>
</svg>