<svg xmlns="http://www.w3.org/2000/svg" fill="none" viewBox="0 0 100 100">
  <path fill="url(#a)"
    d="M0 33.2C0 5.86 5.86 0 33.2 0h33.6C94.14 0 100 5.86 100 33.2v33.6c0 27.34-5.86 33.2-33.2 33.2H33.2C5.86 100 0 94.14 0 66.8V33.2Z" />
  <g fill="#fff" fill-rule="evenodd" clip-path="url(#b)" clip-rule="evenodd">
    <path stroke="#fff"
      d="M50 83.965c18.758 0 33.965-15.207 33.965-33.965 0-18.759-15.207-33.965-33.965-33.965-18.759 0-33.965 15.206-33.965 33.965 0 18.758 15.206 33.965 33.965 33.965Zm.017-2.257c17.503 0 31.69-14.188 31.69-31.69 0-17.503-14.187-31.691-31.69-31.691-17.502 0-31.69 14.188-31.69 31.69 0 17.503 14.188 31.69 31.69 31.69Z" />
    <path
      d="M40.138 31.524h-2.64v36.987h2.64V31.524Zm5.243 0h4.418c2.919 0 5.482.486 7.688 1.459 2.207.972 4.04 2.292 5.5 3.959 1.459 1.667 2.553 3.62 3.283 5.86s1.095 4.628 1.095 7.163c0 2.813-.409 5.357-1.225 7.632-.817 2.275-1.99 4.22-3.519 5.835-1.529 1.614-3.379 2.865-5.55 3.75-2.173.886-4.596 1.329-7.272 1.329H45.38v-2.397h4.418c2.432 0 4.578-.408 6.437-1.224 1.86-.816 3.414-1.953 4.665-3.412 1.251-1.459 2.198-3.169 2.841-5.131.643-1.962.964-4.09.964-6.382 0-2.327-.33-4.471-.99-6.433-.66-1.962-1.625-3.656-2.893-5.08-1.268-1.423-2.823-2.535-4.665-3.334-1.842-.798-3.962-1.198-6.36-1.198h-4.417v-2.396Z" />
  </g>
  <defs>
    <linearGradient id="a" x1="8.5" x2="212" y1="6" y2="224.5" gradientUnits="userSpaceOnUse">
      <stop stop-color="#181818" />
      <stop offset="1" stop-color="#251F1F" stop-opacity="0" />
    </linearGradient>
    <clipPath id="b">
      <path fill="#fff" d="M0 0h68v68H0z" transform="translate(16 16)" />
    </clipPath>
  </defs>
</svg>